<?xml version="1.0" encoding="UTF-8"?>
<svg width="512" height="512" version="1.1" viewBox="0 0 512 512" xmlns="http://www.w3.org/2000/svg">
 <rect width="512" height="512" fill="#f5f5f5"/>
 <g transform="matrix(1.3333 0 0 -1.3333 256 256)" fill="#ccc">
  <path d="m0 0c-35.496 0-64.5-28.668-64.5-64.164 0-35.333 28.668-64.5 64.164-64.5 35.496 0 64.5 28.831 64.5 64.164 0 35.496-28.668 64.5-64.164 64.5zm0-115.497c-28.179 0-51.17 22.991-51.17 51.17s22.991 51.17 51.17 51.17 51.17-22.991 51.17-51.17-22.991-51.17-51.17-51.17z"/>
  <path d="m0 25.666c-6.661 0-12.07-5.409-12.07-12.07v-77.76c0-6.661 5.409-12.07 12.07-12.07s12.07 5.409 12.07 12.07v77.76c0 6.661-5.409 12.07-12.07 12.07z"/>
 </g>
</svg> 